# xmcd
#
# Track frame offsets:
#	182
#	13386
#	27494
#	41553
#	52950
#	66190
#	79018
#	90420
#	101808
#	116417
#	130078
#	140521
#	153908
#	169763
#	182997
#	197238
#	211576
#	225386
#	237724
#
# Disc length: 3329 seconds
#
# Revision: 0
# Processed by: cddbd v1.5.2PL0 Copyright (c) Steve Scherf et al.
# Submitted via: dBpowerAMP V4.0
#
DISCID=020cff13
DTITLE=Andrew Tibbs - The Chronological Andrew Tibbs 1947-1951
DYEAR=1900
DGENRE=R&B
TTITLE0=Bilbo Is Dead
TTITLE1=Union Man Blues
TTITLE2=Toothless Woman Blues
TTITLE3=Drinking Ink Splink
TTITLE4=I Feel Like Crying
TTITLE5=Going Down Fast
TTITLE6=Same Old Story
TTITLE7=Married Man Blues
TTITLE8=He's Got Her And Gone
TTITLE9=The Holidays Are Over
TTITLE10=Big Time Baby
TTITLE11=In A Travelin' Mood
TTITLE12=In Every Man's Life
TTITLE13=How Long
TTITLE14=I Know
TTITLE15=You Can't Win
TTITLE16=Achin' Heart
TTITLE17=Rock Savoy Rock
TTITLE18=Mother's Letter
EXTD=
EXTT0=
EXTT1=
EXTT2=
EXTT3=
EXTT4=
EXTT5=
EXTT6=
EXTT7=
EXTT8=
EXTT9=
EXTT10=
EXTT11=
EXTT12=
EXTT13=
EXTT14=
EXTT15=
EXTT16=
EXTT17=
EXTT18=
PLAYORDER=
